# AST/ASF file generated using VICON BodyLanguage
# -----------------------------------------------
:version 1.10
:name VICON
:units
  mass 1.0
  length 0.45
  angle deg
:documentation
   .ast/.asf automatically generated from VICON data using
   VICON BodyBuilder and BodyLanguage model FoxedUp or BRILLIANT.MOD
:root
   order TX TY TZ RX RY RZ
   axis XYZ
   position 0 0 0  
   orientation 0 0 0 
:bonedata
  begin
     id 1 
     name lhipjoint
     direction 0.440178 -0.822639 0.359871 
     length 2.53113 
     axis 0 0 0  XYZ
  end
  begin
     id 2 
     name lfemur
     direction 0.34202 -0.939693 0  
     length 7.88132  
     axis 0 0 20  XYZ
    dof rx ry rz
    limits (-160.0 20.0)
           (-70.0 70.0)
           (-60.0 70.0)
  end
  begin
     id 3 
     name ltibia
     direction 0.34202 -0.939693 0   
     length 8.43783   
     axis 0 0 20   XYZ
    dof rx
    limits (-10.0 170.0)
  end
  begin
     id 4 
     name lfoot
     direction 0.0886351 -0.243523 0.965837   
     length 2.63414   
     axis -90 7.62852e-016 20   XYZ
    dof rx rz
    limits (-45.0 90.0)
           (-70.0 20.0)
  end
  begin
     id 5 
     name ltoes
     direction 1.53703e-011 -4.21717e-011 1   
     length 1.31427   
     axis -90 7.62852e-016 20   XYZ
    dof rx
    limits (-90.0 20.0)
  end
  begin
     id 6 
     name rhipjoint
     direction -0.399779 -0.839773 0.367367   
     length 2.47948  
     axis 0 0 0  XYZ 
  end
  begin
     id 7 
     name rfemur
     direction -0.34202 -0.939693 0   
     length 7.74806   
     axis 0 0 -20   XYZ
    dof rx ry rz
    limits (-160.0 20.0)
           (-70.0 70.0)
           (-70.0 60.0)
  end
  begin
     id 8 
     name rtibia
     direction -0.34202 -0.939693 0   
     length 8.74432   
     axis 0 0 -20   XYZ
    dof rx
    limits (-10.0 170.0)
 end
 begin
     id 9 
     name rfoot
     direction -0.108514 -0.298139 0.948334   
     length 2.66102  
     axis -90 -7.62852e-016 -20   XYZ
    dof rx rz
    limits (-45.0 90.0)
           (-20.0 70.0)
  end
  begin
     id 10 
     name rtoes
     direction -1.53392e-011 -4.22077e-011 1   
     length 1.31983   
     axis -90 -7.62852e-016 -20   XYZ
    dof rx
    limits (-90.0 20.0)
  end
  begin
     id 11 
     name lowerback
     direction 0.0113257 0.999866 0.0118602   
     length 2.58694   
     axis 0 0 0   XYZ
    dof rx ry rz
    limits (-20.0 45.0)
           (-30.0 30.0)
           (-30.0 30.0)
  end
  begin
     id 12 
     name upperback
     direction -0.0164747 0.995193 -0.0965375   
     length 2.52368   
     axis 0 0 0   XYZ
    dof rx ry rz
    limits (-20.0 45.0)
           (-30.0 30.0)
           (-30.0 30.0)
  end
  begin
     id 13 
     name thorax
     direction -0.0194301 0.99433 -0.104552   
     length 2.56099   
     axis 0 0 0   XYZ
    dof rx ry rz
    limits (-20.0 45.0)
           (-30.0 30.0)
           (-30.0 30.0)
  end
  begin
     id 14 
     name lowerneck
     direction 0.0148543 0.995587 -0.092657   
     length 1.71582   
     axis 0 0 0   XYZ
    dof rx ry rz
    limits (-20.0 45.0)
           (-30.0 30.0)
           (-30.0 30.0)
  end
  begin
     id 15 
     name upperneck
     direction -0.0135467 0.993656 -0.111639   
     length 1.68937   
     axis 0 0 0   XYZ
    dof rx ry rz
    limits (-20.0 45.0)
           (-30.0 30.0)
           (-30.0 30.0)
  end
  begin
     id 16
     name head
     direction -0.00615349 0.999547 -0.029448  
     length 1.7462  
     axis 0 0 0   XYZ
    dof rx ry rz
    limits (-20.0 45.0)
           (-30.0 30.0)
           (-30.0 30.0)
  end
  begin
     id 17 
     name lclavicle
     direction 0.988267 0.149885 0.0293713  
     length 4.47222  
     axis 0 0 0   XYZ
    dof ry rz
    limits (-20.0 10.0)
           (0.0 20.0)
  end
  begin
     id 18 
     name lhumerus
     direction 1 -4.48986e-011 -1.14833e-027   
     length 5.37148   
     axis 180 -30 -90   XYZ
    dof rx ry rz
    limits (-60.0 90.0)
           (-90.0 90.0)
           (-90.0 90.0)
  end
  begin
     id 19
     name lradius
     direction 0.999998 0.00170963 -0.000987055   
     length 3.94212   
     axis 180 -30 -90   XYZ
    dof rx
    limits (-10.0 170.0)
  end
  begin
     id 20
     name lwrist
     direction 0.999998 7.53149e-005 -0.00194706   
     length 1.97106   
     axis 4.65056e-015 90 90   XYZ
    dof ry
    limits (-180.0 0.0)
 end
  begin
     id 21 
     name lhand
     direction 1 -4.48973e-011 -1.31746e-026   
     length 1.17917   
     axis 8.4065e-015 90 90   XYZ
    dof rx rz
    limits (-90.0 90.0)
           (-45.0 45.0)
  end
  begin
     id 22 
     name lfingers
     direction 1 -4.49107e-011 -2.63492e-026   
     length 0.950679   
     axis 1.6813e-014 90 90   XYZ
    dof rx
    limits (0.0 90.0)
  end
  begin
     id 23
     name lthumb
     direction 0.707107 -6.35048e-011 0.707107   
     length 1.36499   
     axis -90 45 2.85299e-015   XYZ
    dof rx rz
    limits (-45.0 45.0)
           (-45.0 45.0)
  end
  begin
     id 24 
     name rclavicle
     direction -0.996699 0.0642895 -0.0495725   
     length 4.62611  
     axis 0 0 0   XYZ 
    dof ry rz
    limits (-10.0 20.0)
           (-20.0 0.0)
  end
  begin
     id 25 
     name rhumerus
     direction -1 -4.48919e-011 -2.41059e-027  
     length 5.4981   
     axis 180 30 90   XYZ
    dof rx ry rz
    limits (-90.0 60.0)
           (-90.0 90.0)
           (-90.0 90.0)
  end
  begin
     id 26 
     name rradius
     direction -0.999999 0.00118101 -0.000681858   
     length 3.48381   
     axis 180 30 90   XYZ
    dof rx
    limits (-10.0 170.0)
  end
  begin
     id 27 
     name rwrist
     direction -0.999999 0.000321823 -0.00132288   
     length 1.7419   
     axis 4.65056e-015 -90 -90   XYZ
    dof ry
    limits (-180.0 0.0)
  end
  begin
     id 28
     name rhand
     direction -1 -4.49022e-011 -1.31746e-026   
     length 1.34932   
     axis 8.4065e-015 -90 -90   XYZ
    dof rx rz
    limits (-90.0 90.0)
           (-45.0 45.0)
  end
  begin
     id 29
     name rfingers
     direction -1 -4.49178e-011 -2.63492e-026   
     length 1.08785   
     axis 1.6813e-014 -90 -90   XYZ
    dof rx
    limits (0.0 90.0)
  end
  begin
     id 30
     name rthumb
     direction -0.707107 -6.34713e-011 0.707107   
     length 1.56195   
     axis -90 -45 -2.85299e-015   XYZ
    dof rx rz
    limits (-45.0 45.0)
           (-45.0 45.0)
  end
:hierarchy
  begin
    root lhipjoint rhipjoint lowerback
    lhipjoint lfemur
    lfemur ltibia
    ltibia lfoot
    lfoot ltoes
    rhipjoint rfemur
    rfemur rtibia
    rtibia rfoot
    rfoot rtoes
    lowerback upperback
    upperback thorax
    thorax lowerneck lclavicle rclavicle
    lowerneck upperneck
    upperneck head
    lclavicle lhumerus
    lhumerus lradius
    lradius lwrist
    lwrist lhand lthumb
    lhand lfingers
    rclavicle rhumerus
    rhumerus rradius
    rradius rwrist
    rwrist rhand rthumb
    rhand rfingers
  end

#!OML:ASF X:\für Bonn\!DataBase\2005_08_10_Bjorn_Final\c3d\bjorn.ASF
:FULLY-SPECIFIED
:DEGREES
1
root 0.828568 19.1653 1.75147 -171.294 -3.2616 -179.541
lowerback -4.97307 1.36499 3.79484
upperback 4.50779 1.37011 0.249463
thorax 7.61317 0.818646 -1.71433
lowerneck -14.7101 -2.95376 -0.637635
upperneck 16.6306 -3.75265 -2.07637
head 7.51217 -2.12007 -0.988398
rclavicle -3.77691e-015 -3.18055e-015
rhumerus 78.652 2.31901 -77.8169
rradius 5.66349
rwrist 52.3353
rhand -13.7864 7.91148
rfingers 7.12502
rthumb 12.335 -21.7047
lclavicle -3.77691e-015 -3.18055e-015
lhumerus 80.2047 -12.3691 80.9666
lradius 5.61725
lwrist -58.6166
lhand -18.2067 -5.36594
lfingers 7.12502
lthumb 8.07085 24.4599
rfemur -17.0695 -23.3889 18.4536
rtibia 30.8722
rfoot -16.5218 22.7524
rtoes -17.2647
lfemur -17.0996 14.0033 -16.2293
ltibia 31.5056
lfoot -16.2182 -15.8828
ltoes -1.69062
2
root 0.83353 19.155 1.75049 -171.424 -3.27847 -179.579
lowerback -4.9724 1.35321 3.69692
upperback 4.53934 1.36071 0.245908
thorax 7.64299 0.809059 -1.66402
lowerneck -14.7284 -2.95009 -0.593872
upperneck 16.7086 -3.73243 -2.23916
head 7.53701 -2.1259 -1.04855
rclavicle -1.65985e-014 -2.54444e-014
rhumerus 78.5075 2.32846 -77.7885
rradius 5.8069
rwrist 51.9694
rhand -13.6814 8.00705
rfingers 7.12502
rthumb 12.4363 -21.603
lclavicle -1.65985e-014 -2.54444e-014
lhumerus 80.2202 -12.3763 80.8989
lradius 5.66587
lwrist -58.2578
lhand -18.558 -5.32407
lfingers 7.12502
lthumb 7.73174 24.5146
rfemur -16.8677 -23.8578 18.3655
rtibia 30.8244
rfoot -16.4844 23.2428
rtoes -16.9299
lfemur -16.8983 14.1716 -16.2101
ltibia 31.4067
lfoot -16.1463 -16.2356
ltoes -0.810247
3
root 0.838176 19.1476 1.75081 -171.538 -3.27931 -179.649
lowerback -4.98956 1.35247 3.56241
upperback 4.57119 1.36893 0.241703
thorax 7.68342 0.806386 -1.59144
lowerneck -14.698 -2.96103 -0.606334
upperneck 16.7639 -3.72876 -2.35928
head 7.5478 -2.13914 -1.08607
rclavicle 5.96354e-016 -7.55382e-015
rhumerus 78.3176 2.3444 -77.7479
rradius 5.93232
rwrist 51.5831
rhand -13.5637 8.07954
rfingers 7.12502
rthumb 12.5498 -21.5236
lclavicle 5.96354e-016 -7.55382e-015
lhumerus 80.1747 -12.4142 80.8636
lradius 5.70219
lwrist -57.831
lhand -18.8223 -5.35888
lfingers 7.12502
lthumb 7.47671 24.489
rfemur -16.6883 -23.8495 18.2246
rtibia 30.7765
rfoot -16.4251 23.3815
rtoes -16.2492
lfemur -16.7208 14.3591 -16.2366
ltibia 31.3163
lfoot -15.9818 -16.6081
ltoes -0.0718905
4
root 0.842607 19.1413 1.75264 -171.653 -3.28402 -179.704
lowerback -5.00286 1.339 3.44651
upperback 4.60027 1.35874 0.2378
thorax 7.7182 0.795496 -1.53127
lowerneck -14.5887 -2.9508 -0.598233
upperneck 16.7866 -3.70312 -2.47915
head 7.53379 -2.14075 -1.12242
rclavicle -1.40143e-014 8.74653e-015
rhumerus 78.1279 2.39235 -77.7287
rradius 5.97464
rwrist 51.1869
rhand -13.5005 8.21757
rfingers 7.12502
rthumb 12.6107 -21.3818
lclavicle -1.40143e-014 8.74653e-015
lhumerus 80.133 -12.4166 80.8068
lradius 5.64035
lwrist -57.4641
lhand -19.0708 -5.43581
lfingers 7.12502
lthumb 7.23681 24.4204
rfemur -16.5214 -23.3415 18.0832
rtibia 30.7456
rfoot -16.2667 23.1603
rtoes -14.7943
lfemur -16.5587 14.5618 -16.2457
ltibia 31.2374
lfoot -15.6792 -16.9865
ltoes 0.61774
5
root 0.846368 19.1372 1.75717 -171.759 -3.28613 -179.781
lowerback -5.00558 1.33554 3.30421
upperback 4.62708 1.36482 0.234974
thorax 7.7444 0.790944 -1.45348
lowerneck -14.3587 -2.95215 -0.604667
upperneck 16.69 -3.69641 -2.5653
head 7.4602 -2.14714 -1.14264
rclavicle 5.96354e-016 2.38542e-015
rhumerus 77.9453 2.42825 -77.69
rradius 5.97957
rwrist 50.7987
rhand -13.4277 8.29028
rfingers 7.12502
rthumb 12.6808 -21.3047
lclavicle 5.96354e-016 2.38542e-015
lhumerus 80.1153 -12.4516 80.776
lradius 5.48824
lwrist -57.1665
lhand -19.23 -5.47982
lfingers 7.12502
lthumb 7.08313 24.3817
rfemur -16.4014 -22.4138 17.9217
rtibia 30.7477
rfoot -16.1572 22.6013
rtoes -13.1185
lfemur -16.4148 14.748 -16.2865
ltibia 31.1586
lfoot -15.3756 -17.3309
ltoes 1.22141
6
root 0.850779 19.1352 1.76402 -171.844 -3.28773 -179.854
lowerback -5.0093 1.32668 3.17135
upperback 4.64889 1.3635 0.228727
thorax 7.76584 0.783347 -1.38549
lowerneck -14.112 -2.94762 -0.649368
upperneck 16.5957 -3.68435 -2.59574
head 7.38655 -2.14799 -1.13758
rclavicle 1.15295e-014 -7.95139e-016
rhumerus 77.7609 2.4782 -77.6645
rradius 5.99125
rwrist 50.4739
rhand -13.35 8.34277
rfingers 7.12502
rthumb 12.7558 -21.2476
lclavicle 1.15295e-014 -7.95139e-016
lhumerus 80.0607 -12.4536 80.7275
lradius 5.35597
lwrist -57.0021
lhand -19.3866 -5.61244
lfingers 7.12502
lthumb 6.93194 24.2541
rfemur -16.3381 -21.5585 17.7904
rtibia 30.792
rfoot -16.1895 22.0128
rtoes -11.9408
lfemur -16.308 14.9305 -16.3372
ltibia 31.0737
lfoot -15.0776 -17.6375
ltoes 1.51159
7
root 0.853787 19.1354 1.77212 -171.931 -3.28438 -179.91
lowerback -4.98196 1.31281 3.06277
upperback 4.65778 1.35383 0.236757
thorax 7.75523 0.772033 -1.31786
lowerneck -13.774 -2.9361 -0.766727
upperneck 16.4361 -3.66127 -2.55787
head 7.27871 -2.14075 -1.09437
rclavicle 8.15017e-015 3.57812e-015
rhumerus 77.6401 2.56046 -77.6217
rradius 5.88542
rwrist 50.1814
rhand -13.2834 8.40696
rfingers 7.12502
rthumb 12.82 -21.1794
lclavicle 8.15017e-015 3.57812e-015
lhumerus 79.8667 -12.4861 80.7217
lradius 5.36528
lwrist -56.9792
lhand -19.4398 -5.62204
lfingers 7.12502
lthumb 6.88064 24.2461
rfemur -16.3089 -20.7064 17.6885
rtibia 30.8784
rfoot -16.3051 21.3513
rtoes -11.195
lfemur -16.1925 14.6922 -16.3724
ltibia 30.9767
lfoot -14.8958 -17.5294
ltoes 1.8457
8
root 0.855691 19.1391 1.78013 -171.995 -3.27745 -179.983
lowerback -4.96646 1.31761 2.98113
upperback 4.6729 1.36937 0.205811
thorax 7.76143 0.776206 -1.30295
lowerneck -13.4974 -2.93312 -0.808261
upperneck 16.2918 -3.66148 -2.52949
head 7.18471 -2.14004 -1.07046
rclavicle 7.95139e-016 -3.97569e-016
rhumerus 77.5603 2.58461 -77.6095
rradius 5.71387
rwrist 49.9632
rhand -13.3036 8.39765
rfingers 7.12502
rthumb 12.8005 -21.1899
lclavicle 7.95139e-016 -3.97569e-016
lhumerus 79.6319 -12.5781 80.6839
lradius 5.48679
lwrist -57.194
lhand -19.4668 -5.64506
lfingers 7.12502
lthumb 6.85457 24.224
rfemur -16.3266 -19.9705 17.5905
rtibia 30.99
rfoot -16.5327 20.6782
rtoes -10.9669
lfemur -16.1035 14.1302 -16.4413
ltibia 30.8628
lfoot -14.803 -17.0983
ltoes 2.03908
9
root 0.858114 19.1421 1.79049 -172.032 -3.27218 -180.041
lowerback -4.92853 1.31509 2.90301
upperback 4.66018 1.37622 0.189675
thorax 7.72381 0.775618 -1.27623
lowerneck -13.1957 -2.93626 -0.909909
upperneck 16.1322 -3.66546 -2.46225
head 7.08356 -2.14113 -1.02391
rclavicle 1.70955e-014 1.51076e-014
rhumerus 77.4974 2.64425 -77.5886
rradius 5.45736
rwrist 49.7813
rhand -13.3876 8.41736
rfingers 7.12502
rthumb 12.7196 -21.1753
lclavicle 1.70955e-014 1.51076e-014
lhumerus 79.3727 -12.6521 80.6634
lradius 5.56246
lwrist -57.5053
lhand -19.4848 -5.61067
lfingers 7.12502
lthumb 6.8372 24.2589
rfemur -16.3871 -19.2201 17.5385
rtibia 31.0929
rfoot -16.7314 19.9661
rtoes -10.6543
lfemur -16.0531 13.4504 -16.5056
ltibia 30.7467
lfoot -14.769 -16.5145
ltoes 2.19725
10
root 0.859582 19.1483 1.80011 -172.057 -3.25502 -180.115
lowerback -4.8916 1.3015 2.8108
upperback 4.65215 1.36762 0.188783
thorax 7.69026 0.766078 -1.22736
lowerneck -12.9905 -2.92045 -1.05684
upperneck 16.0213 -3.62982 -2.41139
head 7.01626 -2.12805 -0.974332
rclavicle -4.96962e-016 -5.56597e-015
rhumerus 77.4802 2.74801 -77.54
rradius 5.15402
rwrist 49.6612
rhand -13.4845 8.39765
rfingers 7.12502
rthumb 12.6262 -21.2007
lclavicle -4.96962e-016 -5.56597e-015
lhumerus 79.1501 -12.6815 80.667
lradius 5.57574
lwrist -57.9818
lhand -19.552 -5.5586
lfingers 7.12502
lthumb 6.77227 24.3131
rfemur -16.3895 -18.4221 17.4751
rtibia 31.1831
rfoot -17.1397 19.0923
rtoes -11.0122
lfemur -15.9402 12.4982 -16.61
ltibia 30.6283
lfoot -15.0099 -15.5097
ltoes 1.53575
